<?xml version="1.0" encoding="UTF-8"?>
<svg version="1.1" xmlns="http://www.w3.org/2000/svg" width="512" height="512">
<path d="M0 0 C168.96 0 337.92 0 512 0 C512 168.96 512 337.92 512 512 C343.04 512 174.08 512 0 512 C0 343.04 0 174.08 0 0 Z " fill="#000000" transform="translate(0,0)"/>
<path d="M0 0 C14.92510455 -0.47492256 28.63716459 0.67869427 43.17529297 4.10302734 C43.17529297 4.76302734 43.17529297 5.42302734 43.17529297 6.10302734 C43.82755859 6.20099609 44.47982422 6.29896484 45.15185547 6.39990234 C50.76660181 7.36053741 54.78369478 8.4048394 59.17529297 12.10302734 C59.17529297 12.76302734 59.17529297 13.42302734 59.17529297 14.10302734 C59.79404297 14.24740234 60.41279297 14.39177734 61.05029297 14.54052734 C63.17529297 15.10302734 63.17529297 15.10302734 65.17529297 16.10302734 C65.17529297 16.76302734 65.17529297 17.42302734 65.17529297 18.10302734 C65.73216797 18.35052734 66.28904297 18.59802734 66.86279297 18.85302734 C72.02905979 21.645604 75.17677213 25.15365206 78.36279297 30.04052734 C79.03697266 31.06017578 79.71115234 32.07982422 80.40576172 33.13037109 C82.9459288 37.39762749 84.17529297 40.09677763 84.17529297 45.10302734 C84.83529297 45.10302734 85.49529297 45.10302734 86.17529297 45.10302734 C86.50529297 47.41302734 86.83529297 49.72302734 87.17529297 52.10302734 C87.83529297 52.10302734 88.49529297 52.10302734 89.17529297 52.10302734 C89.26093506 52.72870605 89.34657715 53.35438477 89.43481445 53.99902344 C89.82382815 56.82587382 90.21824247 59.65194467 90.61279297 62.47802734 C90.7475 63.46287109 90.88220703 64.44771484 91.02099609 65.46240234 C91.153125 66.40341797 91.28525391 67.34443359 91.42138672 68.31396484 C91.60205688 69.61793213 91.60205688 69.61793213 91.78637695 70.94824219 C92.0782846 73.14337295 92.0782846 73.14337295 93.17529297 75.10302734 C93.27011005 77.44679983 93.29718783 79.79337957 93.29554749 82.1390686 C93.29682912 83.23806569 93.29682912 83.23806569 93.29813665 84.35926473 C93.29979043 86.82677388 93.29427174 89.29421581 93.28881836 91.76171875 C93.28853644 93.52553811 93.28869431 95.28935759 93.28926086 97.05317688 C93.28954865 101.85250237 93.28365492 106.65180305 93.27668691 111.45112276 C93.27045028 116.46264299 93.26984932 121.47416374 93.2686615 126.48568726 C93.2655491 135.98064699 93.25733693 145.47559526 93.24731201 154.97054994 C93.23614805 165.77812796 93.23063971 176.58570651 93.22561657 187.39328885 C93.21515425 209.62987618 93.19680989 231.86644778 93.17529297 254.10302734 C79.64529297 254.10302734 66.11529297 254.10302734 52.17529297 254.10302734 C52.15547363 248.98577148 52.1356543 243.86851562 52.11523438 238.59619141 C52.04828651 221.67670995 51.97074575 204.75728924 51.88776588 187.83787918 C51.83772013 177.58106211 51.79127648 167.32425271 51.75341797 157.06738281 C51.72039755 148.12378728 51.68051131 139.18025271 51.63250291 130.23672462 C51.60733754 125.50458292 51.58552724 120.77248114 51.57194901 116.04029083 C51.55903773 111.57844469 51.53688732 107.11673617 51.50790977 102.65496635 C51.49890437 101.02488895 51.4931604 99.39478944 51.49107933 97.76468849 C51.47881004 89.60774385 51.25005402 81.74427195 49.60158348 73.71421432 C49.12701079 70.80728112 49.10779055 68.04338345 49.17529297 65.10302734 C48.51529297 65.10302734 47.85529297 65.10302734 47.17529297 65.10302734 C46.97935547 64.48556641 46.78341797 63.86810547 46.58154297 63.23193359 C43.45197092 54.36930931 37.96906848 47.44733055 30.17529297 42.10302734 C29.18529297 41.77302734 28.19529297 41.44302734 27.17529297 41.10302734 C27.17529297 40.44302734 27.17529297 39.78302734 27.17529297 39.10302734 C23.87529297 38.44302734 20.57529297 37.78302734 17.17529297 37.10302734 C17.17529297 36.44302734 17.17529297 35.78302734 17.17529297 35.10302734 C11.82252317 35.05314133 6.46989231 35.01708037 1.11694336 34.99316406 C-0.69948691 34.98318102 -2.51590143 34.96958984 -4.33227539 34.95214844 C-24.14419354 34.76683751 -40.03040314 37.05340126 -55.57470703 50.47802734 C-58.01647325 53.3267546 -59.86365263 56.27263506 -61.71142578 59.52880859 C-62.07880859 60.04830078 -62.44619141 60.56779297 -62.82470703 61.10302734 C-63.48470703 61.10302734 -64.14470703 61.10302734 -64.82470703 61.10302734 C-65.09283203 62.11365234 -65.36095703 63.12427734 -65.63720703 64.16552734 C-66.71822263 67.97630176 -68.20333041 71.49177942 -69.82470703 75.10302734 C-70.48470703 75.10302734 -71.14470703 75.10302734 -71.82470703 75.10302734 C-71.95814011 76.39405365 -72.09157318 77.68507996 -72.22904968 79.01522827 C-72.58353857 82.22431609 -73.017486 85.39835757 -73.56062317 88.58071899 C-76.29114495 105.08460294 -76.3047359 121.54606752 -76.33081794 138.21919966 C-76.340344 142.30843111 -76.36655588 146.39755911 -76.39082336 150.48672485 C-76.43410764 158.19248562 -76.46288625 165.89822589 -76.48614675 173.60407031 C-76.51340547 182.39286594 -76.55730206 191.18155551 -76.60243547 199.97027469 C-76.69473494 218.01448291 -76.76446824 236.05868164 -76.82470703 254.10302734 C-90.35470703 254.10302734 -103.88470703 254.10302734 -117.82470703 254.10302734 C-117.82470703 171.60302734 -117.82470703 89.10302734 -117.82470703 4.10302734 C-106.93470703 4.10302734 -96.04470703 4.10302734 -84.82470703 4.10302734 C-81.38654315 17.85568288 -81.38654315 17.85568288 -80.69970703 25.04052734 C-80.24767348 29.43794149 -79.78880033 33.78152143 -78.82470703 38.10302734 C-78.37095703 37.60802734 -77.91720703 37.11302734 -77.44970703 36.60302734 C-75.82470703 35.10302734 -75.82470703 35.10302734 -73.82470703 35.10302734 C-73.16470703 33.45302734 -72.50470703 31.80302734 -71.82470703 30.10302734 C-71.16470703 30.10302734 -70.50470703 30.10302734 -69.82470703 30.10302734 C-69.55787109 29.51263672 -69.29103516 28.92224609 -69.01611328 28.31396484 C-65.39943707 21.60236244 -58.35849532 16.73586686 -51.82470703 13.10302734 C-51.16470703 13.10302734 -50.50470703 13.10302734 -49.82470703 13.10302734 C-49.82470703 12.44302734 -49.82470703 11.78302734 -49.82470703 11.10302734 C-47.34970703 10.60802734 -47.34970703 10.60802734 -44.82470703 10.10302734 C-44.82470703 9.44302734 -44.82470703 8.78302734 -44.82470703 8.10302734 C-29.83313987 2.80236527 -15.90008138 0.57993382 0 0 Z " fill="#FBFBFB" transform="translate(373.82470703125,169.89697265625)"/>
<path d="M0 0 C13.2 0 26.4 0 40 0 C44.5 10.125 44.5 10.125 45.25 15.0625 C45.39953125 16.00222656 45.5490625 16.94195312 45.703125 17.91015625 C45.85007812 18.94462891 45.85007812 18.94462891 46 20 C46.66 20 47.32 20 48 20 C49.30831008 23.26441094 50.59339125 26.53752401 51.875 29.8125 C52.23980469 30.72193359 52.60460937 31.63136719 52.98046875 32.56835938 C55.47054603 38.9746491 57.01198593 45.20018698 58 52 C58.66 52 59.32 52 60 52 C60.66 55.63 61.32 59.26 62 63 C62.66 63 63.32 63 64 63 C66.32475599 69.08805465 68.64531228 75.17769493 70.96142578 81.26904297 C71.59199974 82.92715304 72.22305196 84.58508147 72.85498047 86.24267578 C76.24371543 95.13891499 79.46677501 104.08199224 82.55297852 113.08813477 C84.18632577 117.82077637 85.9943173 122.40886695 88 127 C89.13033484 129.78153409 90.22420257 132.5767844 91.3125 135.375 C91.61446289 136.15085449 91.91642578 136.92670898 92.22753906 137.72607422 C94.8367092 144.48122936 97.26770803 151.29168016 99.640625 158.1328125 C100.58755185 160.85674414 101.57827491 163.56016247 102.59765625 166.2578125 C104.47755465 171.27436589 106 175.61913056 106 181 C106.66 181 107.32 181 108 181 C109.6706519 185.33180887 111.33600115 189.66563174 113 194 C113.30679688 194.79148437 113.61359375 195.58296875 113.9296875 196.3984375 C116.05027705 201.92945972 118 207.03671432 118 213 C118.66 213 119.32 213 120 213 C120.82101314 215.1843191 121.63142482 217.37262436 122.4375 219.5625 C122.88996094 220.78066406 123.34242188 221.99882812 123.80859375 223.25390625 C124.97885142 226.93350333 125.57261353 230.18299666 126 234 C126.66 234 127.32 234 128 234 C138 258.90410959 138 258.90410959 138 266 C138.66 266 139.32 266 140 266 C143.94605036 275.87680061 147.71173171 285.76438926 150.95751953 295.89599609 C152.40779092 300.38779447 154.11388161 304.66702531 156 309 C157.42911414 312.57066394 158.81037562 316.15901743 160.1875 319.75 C160.55552734 320.69488281 160.92355469 321.63976562 161.30273438 322.61328125 C161.65013672 323.51949219 161.99753906 324.42570312 162.35546875 325.359375 C162.67153076 326.17889648 162.98759277 326.99841797 163.31323242 327.84277344 C164 330 164 330 164 333 C150.47 333 136.94 333 123 333 C122.34 331.02 121.68 329.04 121 327 C119.6945942 323.63363536 118.36171109 320.2792009 117.0234375 316.92578125 C116 314 116 314 116 311 C115.34 311 114.68 311 114 311 C113.79246094 310.29359375 113.58492188 309.5871875 113.37109375 308.859375 C110.48946773 299.26199294 107.19821544 289.82718482 103.84619141 280.38574219 C103.07418383 278.20915302 102.30755517 276.030767 101.54296875 273.8515625 C99.52842123 268.14266349 97.437471 262.53970681 95 257 C92 249.61751152 92 249.61751152 92 246 C91.34 246 90.68 246 90 246 C89.49339844 244.35451172 89.49339844 244.35451172 88.9765625 242.67578125 C88.52614898 241.22132093 88.07562216 239.76689569 87.625 238.3125 C87.40328125 237.59126953 87.1815625 236.87003906 86.953125 236.12695312 C86.01272571 233.09831424 85.06588118 230.15674415 83.8359375 227.23046875 C83 225 83 225 83 221 C82.34 221 81.68 221 81 221 C80.76925781 220.11699219 80.53851563 219.23398437 80.30078125 218.32421875 C78.76451423 212.67099901 77.23929818 207.17293861 74.6875 201.875 C72.14651946 196.58722741 70.18442893 191.15604852 68.25 185.625 C67.94408936 184.75601074 67.63817871 183.88702148 67.32299805 182.99169922 C65.95010188 179.02212967 64.6513149 175.16498738 64 171 C63.34 171 62.68 171 62 171 C61.34 167.37 60.68 163.74 60 160 C59.34 160 58.68 160 58 160 C57.18428782 157.43848317 56.37233869 154.87587372 55.5625 152.3125 C55.21735352 151.2306543 55.21735352 151.2306543 54.86523438 150.12695312 C53.7030233 146.43819625 52.65557227 142.82040393 52 139 C51.34 139 50.68 139 50 139 C49.78085938 138.2471875 49.56171875 137.494375 49.3359375 136.71875 C47.16357232 129.44220973 44.71226026 122.3596325 41.93115234 115.29492188 C40.79875286 112.37325838 40 110.16409451 40 107 C39.34 107 38.68 107 38 107 C37.74605469 106.16597656 37.49210937 105.33195312 37.23046875 104.47265625 C36.16200523 100.9791407 35.08244685 97.48920595 34 94 C33.76152344 93.21625 33.52304688 92.4325 33.27734375 91.625 C31.82269845 87.02588191 30.00517407 82.66605359 28.0625 78.25 C24.50789189 70.08854903 21.62473501 61.76713446 20 53 C19.34 53 18.68 53 18 53 C17.69707031 51.82824219 17.39414063 50.65648437 17.08203125 49.44921875 C15.03283984 41.69735422 12.94518588 34.34665215 9.3984375 27.12890625 C7.41796632 22.69774029 5.84319236 18.14486348 4.25 13.5625 C3.94400879 12.68480957 3.63801758 11.80711914 3.32275391 10.90283203 C2.07239601 7.27391572 0.93230904 3.72923615 0 0 Z " fill="#FAFAFA" transform="translate(48,91)"/>
<path d="M0 0 C0.66 0.33 1.32 0.66 2 1 C-6.27906977 10.58139535 -6.27906977 10.58139535 -9 13 C-9.66 13 -10.32 13 -11 13 C-11.33 14.32 -11.66 15.64 -12 17 C-12.66 17 -13.32 17 -14 17 C-14 17.66 -14 18.32 -14 19 C-14.66 18.67 -15.32 18.34 -16 18 C-15.67 17.34 -15.34 16.68 -15 16 C-14.34 16 -13.68 16 -13 16 C-12.34 14.35 -11.68 12.7 -11 11 C-10.34 11 -9.68 11 -9 11 C-8.74476563 10.41734375 -8.48953125 9.8346875 -8.2265625 9.234375 C-6.88258913 6.78611777 -5.38189704 5.18256752 -3.375 3.25 C-2.74335938 2.63640625 -2.11171875 2.0228125 -1.4609375 1.390625 C-0.73777344 0.70226562 -0.73777344 0.70226562 0 0 Z " fill="#BFBFBF" transform="translate(313,189)"/>
<path d="M0 0 C0 0.66 0 1.32 0 2 C-1.66354658 3.00518185 -3.3308632 4.00412846 -5 5 C-6.58316994 6.49901473 -8.12511871 8.04265101 -9.625 9.625 C-13.66876972 13.88958991 -13.66876972 13.88958991 -17 15 C-14.77560469 9.54012061 -6.40660767 0 0 0 Z " fill="#3B3B3B" transform="translate(330,212)"/>
<path d="M0 0 C4.05281712 1.22527029 7.44360764 2.69880494 11 5 C9 6 9 6 5.875 5.0625 C4.92625 4.711875 3.9775 4.36125 3 4 C3 3.34 3 2.68 3 2 C2.01 1.67 1.02 1.34 0 1 C0 0.67 0 0.34 0 0 Z " fill="#929292" transform="translate(422,177)"/>
</svg>
